<mxfile host="app.diagrams.net" modified="2023-04-10T17:41:25.623Z" agent="Mozilla/5.0 (Macintosh; Intel Mac OS X 10_15_7) AppleWebKit/605.1.15 (KHTML, like Gecko) Version/16.3 Safari/605.1.15" etag="WwVtuGkbOQE-2V54oY8C" version="21.1.5" type="google">
  <diagram name="Page-1" id="Rl7OsiwmcRrPMPTpJt93">
    <mxGraphModel grid="1" page="1" gridSize="10" guides="1" tooltips="1" connect="1" arrows="1" fold="1" pageScale="1" pageWidth="827" pageHeight="1169" math="0" shadow="0">
      <root>
        <mxCell id="0" />
        <mxCell id="1" parent="0" />
        <mxCell id="c85ggkQkAHsCC41uX2oU-53" value="«Component»&lt;br&gt;&lt;b&gt;Terminal&lt;/b&gt;" style="html=1;dropTarget=0;whiteSpace=wrap;fillColor=#dae8fc;strokeColor=#6c8ebf;verticalAlign=top;" vertex="1" parent="1">
          <mxGeometry x="100" y="730" width="600" height="380" as="geometry" />
        </mxCell>
        <mxCell id="c85ggkQkAHsCC41uX2oU-54" value="" style="shape=module;jettyWidth=8;jettyHeight=4;fillColor=#dae8fc;strokeColor=#6c8ebf;" vertex="1" parent="c85ggkQkAHsCC41uX2oU-53">
          <mxGeometry x="1" width="20" height="20" relative="1" as="geometry">
            <mxPoint x="-27" y="7" as="offset" />
          </mxGeometry>
        </mxCell>
        <mxCell id="Oeiwt-_TRu4ILddGKiTz-1" value="&lt;div&gt;Component Interfaces&lt;/div&gt;&lt;div&gt;&lt;br&gt;&lt;/div&gt;" style="text;html=1;align=center;verticalAlign=middle;whiteSpace=wrap;rounded=0;" vertex="1" parent="1">
          <mxGeometry x="339" y="40" width="150" height="30" as="geometry" />
        </mxCell>
        <mxCell id="Oeiwt-_TRu4ILddGKiTz-2" value="«Component»&lt;br&gt;&lt;b&gt;Online Payment&lt;/b&gt;" style="html=1;dropTarget=0;whiteSpace=wrap;fillColor=#dae8fc;strokeColor=#6c8ebf;" vertex="1" parent="1">
          <mxGeometry x="324" y="110" width="146" height="50" as="geometry" />
        </mxCell>
        <mxCell id="Oeiwt-_TRu4ILddGKiTz-3" value="" style="shape=module;jettyWidth=8;jettyHeight=4;fillColor=#dae8fc;strokeColor=#6c8ebf;" vertex="1" parent="Oeiwt-_TRu4ILddGKiTz-2">
          <mxGeometry x="1" width="20" height="20" relative="1" as="geometry">
            <mxPoint x="-27" y="7" as="offset" />
          </mxGeometry>
        </mxCell>
        <mxCell id="Oeiwt-_TRu4ILddGKiTz-4" value="paymentTransaction" style="rounded=0;orthogonalLoop=1;jettySize=auto;html=1;endArrow=none;endFill=0;sketch=0;sourcePerimeterSpacing=0;targetPerimeterSpacing=0;entryX=0;entryY=0.5;entryDx=0;entryDy=0;fillColor=#dae8fc;strokeColor=#6c8ebf;" edge="1" parent="1" source="Oeiwt-_TRu4ILddGKiTz-6" target="Oeiwt-_TRu4ILddGKiTz-2">
          <mxGeometry x="-1" y="-15" relative="1" as="geometry">
            <mxPoint x="260" y="155" as="sourcePoint" />
            <mxPoint x="314" y="142.5" as="targetPoint" />
            <mxPoint as="offset" />
          </mxGeometry>
        </mxCell>
        <mxCell id="Oeiwt-_TRu4ILddGKiTz-6" value="" style="ellipse;whiteSpace=wrap;html=1;align=center;aspect=fixed;resizable=0;points=[];outlineConnect=0;sketch=0;fillColor=#dae8fc;strokeColor=#6c8ebf;" vertex="1" parent="1">
          <mxGeometry x="250" y="130" width="10" height="10" as="geometry" />
        </mxCell>
        <mxCell id="Oeiwt-_TRu4ILddGKiTz-8" value="identityManagment" style="rounded=0;orthogonalLoop=1;jettySize=auto;html=1;endArrow=halfCircle;endFill=0;endSize=6;strokeWidth=1;sketch=0;exitX=1;exitY=0.5;exitDx=0;exitDy=0;fillColor=#dae8fc;strokeColor=#6c8ebf;" edge="1" parent="1" source="Oeiwt-_TRu4ILddGKiTz-2">
          <mxGeometry x="1" y="-15" relative="1" as="geometry">
            <mxPoint x="520" y="154.82999999999998" as="sourcePoint" />
            <mxPoint x="550" y="135" as="targetPoint" />
            <mxPoint as="offset" />
          </mxGeometry>
        </mxCell>
        <mxCell id="Oeiwt-_TRu4ILddGKiTz-12" value="Provided interface" style="endArrow=classic;html=1;rounded=0;" edge="1" parent="1">
          <mxGeometry x="-1" y="-10" width="50" height="50" relative="1" as="geometry">
            <mxPoint x="280" y="100" as="sourcePoint" />
            <mxPoint x="280" y="130" as="targetPoint" />
            <mxPoint x="10" y="-10" as="offset" />
          </mxGeometry>
        </mxCell>
        <mxCell id="Oeiwt-_TRu4ILddGKiTz-13" value="Required interface" style="endArrow=classic;html=1;rounded=0;" edge="1" parent="1">
          <mxGeometry x="-1" y="-10" width="50" height="50" relative="1" as="geometry">
            <mxPoint x="540" y="100" as="sourcePoint" />
            <mxPoint x="540" y="130" as="targetPoint" />
            <mxPoint x="10" y="-10" as="offset" />
          </mxGeometry>
        </mxCell>
        <mxCell id="Oeiwt-_TRu4ILddGKiTz-21" value="«Component»&lt;br&gt;&lt;b&gt;Online Payment&lt;/b&gt;" style="html=1;dropTarget=0;whiteSpace=wrap;fillColor=#dae8fc;strokeColor=#6c8ebf;" vertex="1" parent="1">
          <mxGeometry x="210" y="300" width="146" height="60" as="geometry" />
        </mxCell>
        <mxCell id="Oeiwt-_TRu4ILddGKiTz-22" value="" style="shape=module;jettyWidth=8;jettyHeight=4;fillColor=#dae8fc;strokeColor=#6c8ebf;" vertex="1" parent="Oeiwt-_TRu4ILddGKiTz-21">
          <mxGeometry x="1" width="20" height="20" relative="1" as="geometry">
            <mxPoint x="-27" y="7" as="offset" />
          </mxGeometry>
        </mxCell>
        <mxCell id="Oeiwt-_TRu4ILddGKiTz-23" value="paymentTransaction" style="rounded=0;orthogonalLoop=1;jettySize=auto;html=1;endArrow=none;endFill=0;sketch=0;sourcePerimeterSpacing=0;targetPerimeterSpacing=0;entryX=0;entryY=0.5;entryDx=0;entryDy=0;fillColor=#dae8fc;strokeColor=#6c8ebf;" edge="1" parent="1" source="Oeiwt-_TRu4ILddGKiTz-24" target="Oeiwt-_TRu4ILddGKiTz-21">
          <mxGeometry x="-1" y="-15" relative="1" as="geometry">
            <mxPoint x="146" y="345" as="sourcePoint" />
            <mxPoint x="200" y="332.5" as="targetPoint" />
            <mxPoint as="offset" />
          </mxGeometry>
        </mxCell>
        <mxCell id="Oeiwt-_TRu4ILddGKiTz-24" value="" style="ellipse;whiteSpace=wrap;html=1;align=center;aspect=fixed;resizable=0;points=[];outlineConnect=0;sketch=0;fillColor=#dae8fc;strokeColor=#6c8ebf;" vertex="1" parent="1">
          <mxGeometry x="137" y="325" width="10" height="10" as="geometry" />
        </mxCell>
        <mxCell id="Oeiwt-_TRu4ILddGKiTz-31" value="identityManagment" style="rounded=0;orthogonalLoop=1;jettySize=auto;html=1;endArrow=halfCircle;endFill=0;endSize=6;strokeWidth=1;sketch=0;exitX=1;exitY=0.5;exitDx=0;exitDy=0;fillColor=#dae8fc;strokeColor=#6c8ebf;" edge="1" parent="1">
          <mxGeometry x="1" y="-15" relative="1" as="geometry">
            <mxPoint x="361" y="330" as="sourcePoint" />
            <mxPoint x="437" y="330" as="targetPoint" />
            <mxPoint as="offset" />
          </mxGeometry>
        </mxCell>
        <mxCell id="Oeiwt-_TRu4ILddGKiTz-32" value="" style="rounded=0;orthogonalLoop=1;jettySize=auto;html=1;endArrow=none;endFill=0;sketch=0;sourcePerimeterSpacing=0;targetPerimeterSpacing=0;fillColor=#dae8fc;strokeColor=#6c8ebf;entryX=0;entryY=0.5;entryDx=0;entryDy=0;" edge="1" parent="1" source="Oeiwt-_TRu4ILddGKiTz-33" target="Oeiwt-_TRu4ILddGKiTz-36">
          <mxGeometry x="-1" y="-35" relative="1" as="geometry">
            <mxPoint x="447" y="324.66" as="sourcePoint" />
            <mxPoint x="517" y="325" as="targetPoint" />
            <mxPoint x="-5" as="offset" />
          </mxGeometry>
        </mxCell>
        <mxCell id="Oeiwt-_TRu4ILddGKiTz-33" value="" style="ellipse;whiteSpace=wrap;html=1;align=center;aspect=fixed;resizable=0;points=[];outlineConnect=0;sketch=0;fillColor=#dae8fc;strokeColor=#6c8ebf;" vertex="1" parent="1">
          <mxGeometry x="432" y="325" width="10" height="10" as="geometry" />
        </mxCell>
        <mxCell id="Oeiwt-_TRu4ILddGKiTz-36" value="«Component»&lt;br&gt;&lt;b&gt;MemberManegment&lt;/b&gt;" style="html=1;dropTarget=0;whiteSpace=wrap;fillColor=#dae8fc;strokeColor=#6c8ebf;" vertex="1" parent="1">
          <mxGeometry x="517" y="300" width="140" height="60" as="geometry" />
        </mxCell>
        <mxCell id="Oeiwt-_TRu4ILddGKiTz-37" value="" style="shape=module;jettyWidth=8;jettyHeight=4;fillColor=#dae8fc;strokeColor=#6c8ebf;" vertex="1" parent="Oeiwt-_TRu4ILddGKiTz-36">
          <mxGeometry x="1" width="20" height="20" relative="1" as="geometry">
            <mxPoint x="-27" y="7" as="offset" />
          </mxGeometry>
        </mxCell>
        <mxCell id="Oeiwt-_TRu4ILddGKiTz-38" value="&lt;div&gt;&lt;div&gt;Component Assemblies&lt;/div&gt;&lt;/div&gt;" style="text;html=1;align=center;verticalAlign=middle;whiteSpace=wrap;rounded=0;" vertex="1" parent="1">
          <mxGeometry x="339" y="240" width="150" height="30" as="geometry" />
        </mxCell>
        <mxCell id="Oeiwt-_TRu4ILddGKiTz-40" value="«Component»&lt;br&gt;&lt;b&gt;Online Payment&lt;/b&gt;" style="html=1;dropTarget=0;whiteSpace=wrap;fillColor=#dae8fc;strokeColor=#6c8ebf;" vertex="1" parent="1">
          <mxGeometry x="203" y="600" width="146" height="60" as="geometry" />
        </mxCell>
        <mxCell id="Oeiwt-_TRu4ILddGKiTz-41" value="" style="shape=module;jettyWidth=8;jettyHeight=4;fillColor=#dae8fc;strokeColor=#6c8ebf;" vertex="1" parent="Oeiwt-_TRu4ILddGKiTz-40">
          <mxGeometry x="1" width="20" height="20" relative="1" as="geometry">
            <mxPoint x="-27" y="7" as="offset" />
          </mxGeometry>
        </mxCell>
        <mxCell id="Oeiwt-_TRu4ILddGKiTz-42" value="paymentTransaction" style="rounded=0;orthogonalLoop=1;jettySize=auto;html=1;endArrow=none;endFill=0;sketch=0;sourcePerimeterSpacing=0;targetPerimeterSpacing=0;entryX=0;entryY=0.5;entryDx=0;entryDy=0;fillColor=#dae8fc;strokeColor=#6c8ebf;" edge="1" parent="1" source="Oeiwt-_TRu4ILddGKiTz-43" target="Oeiwt-_TRu4ILddGKiTz-40">
          <mxGeometry x="-1" y="-15" relative="1" as="geometry">
            <mxPoint x="139" y="645" as="sourcePoint" />
            <mxPoint x="193" y="632.5" as="targetPoint" />
            <mxPoint as="offset" />
          </mxGeometry>
        </mxCell>
        <mxCell id="Oeiwt-_TRu4ILddGKiTz-43" value="" style="ellipse;whiteSpace=wrap;html=1;align=center;aspect=fixed;resizable=0;points=[];outlineConnect=0;sketch=0;fillColor=#dae8fc;strokeColor=#6c8ebf;" vertex="1" parent="1">
          <mxGeometry x="130" y="625" width="10" height="10" as="geometry" />
        </mxCell>
        <mxCell id="Oeiwt-_TRu4ILddGKiTz-44" value="identityManagment" style="rounded=0;orthogonalLoop=1;jettySize=auto;html=1;endArrow=halfCircle;endFill=0;endSize=6;strokeWidth=1;sketch=0;exitX=1;exitY=0.5;exitDx=0;exitDy=0;fillColor=#dae8fc;strokeColor=#6c8ebf;" edge="1" parent="1">
          <mxGeometry x="1" y="-15" relative="1" as="geometry">
            <mxPoint x="354" y="630" as="sourcePoint" />
            <mxPoint x="430" y="630" as="targetPoint" />
            <mxPoint as="offset" />
          </mxGeometry>
        </mxCell>
        <mxCell id="Oeiwt-_TRu4ILddGKiTz-45" value="" style="rounded=0;orthogonalLoop=1;jettySize=auto;html=1;endArrow=none;endFill=0;sketch=0;sourcePerimeterSpacing=0;targetPerimeterSpacing=0;fillColor=#dae8fc;strokeColor=#6c8ebf;entryX=0;entryY=0.5;entryDx=0;entryDy=0;" edge="1" parent="1" source="Oeiwt-_TRu4ILddGKiTz-46" target="Oeiwt-_TRu4ILddGKiTz-53">
          <mxGeometry x="-1" y="-35" relative="1" as="geometry">
            <mxPoint x="440" y="624.6600000000001" as="sourcePoint" />
            <mxPoint x="490" y="630" as="targetPoint" />
            <mxPoint x="-5" as="offset" />
          </mxGeometry>
        </mxCell>
        <mxCell id="Oeiwt-_TRu4ILddGKiTz-46" value="" style="ellipse;whiteSpace=wrap;html=1;align=center;aspect=fixed;resizable=0;points=[];outlineConnect=0;sketch=0;fillColor=#dae8fc;strokeColor=#6c8ebf;" vertex="1" parent="1">
          <mxGeometry x="425" y="625" width="10" height="10" as="geometry" />
        </mxCell>
        <mxCell id="Oeiwt-_TRu4ILddGKiTz-47" value="«Component»&lt;br&gt;&lt;b&gt;MemberManegment&lt;/b&gt;" style="html=1;dropTarget=0;whiteSpace=wrap;fillColor=#dae8fc;strokeColor=#6c8ebf;" vertex="1" parent="1">
          <mxGeometry x="510" y="600" width="140" height="60" as="geometry" />
        </mxCell>
        <mxCell id="Oeiwt-_TRu4ILddGKiTz-48" value="" style="shape=module;jettyWidth=8;jettyHeight=4;fillColor=#dae8fc;strokeColor=#6c8ebf;" vertex="1" parent="Oeiwt-_TRu4ILddGKiTz-47">
          <mxGeometry x="1" width="20" height="20" relative="1" as="geometry">
            <mxPoint x="-27" y="7" as="offset" />
          </mxGeometry>
        </mxCell>
        <mxCell id="Oeiwt-_TRu4ILddGKiTz-53" value="" style="fontStyle=0;labelPosition=right;verticalLabelPosition=middle;align=left;verticalAlign=middle;spacingLeft=2;fillColor=#dae8fc;strokeColor=#6c8ebf;" vertex="1" parent="1">
          <mxGeometry x="500" y="620" width="20" height="20" as="geometry" />
        </mxCell>
        <mxCell id="Oeiwt-_TRu4ILddGKiTz-54" value="" style="endArrow=classic;html=1;rounded=0;" edge="1" parent="1">
          <mxGeometry width="50" height="50" relative="1" as="geometry">
            <mxPoint x="480" y="560" as="sourcePoint" />
            <mxPoint x="500" y="610" as="targetPoint" />
          </mxGeometry>
        </mxCell>
        <mxCell id="Oeiwt-_TRu4ILddGKiTz-55" value="&lt;h1&gt;Port&lt;/h1&gt;&lt;p&gt;A port (definition) indicates that the component itself does not provide the required interfaces (e.g., required or provided). Instead, the component delegates the interface(s) to an internal class.&lt;/p&gt;" style="text;html=1;strokeColor=none;fillColor=none;spacing=5;spacingTop=-20;whiteSpace=wrap;overflow=hidden;rounded=0;" vertex="1" parent="1">
          <mxGeometry x="335" y="410" width="190" height="120" as="geometry" />
        </mxCell>
        <mxCell id="c85ggkQkAHsCC41uX2oU-1" value="«Component»&lt;br&gt;&lt;b&gt;SafetyInspection&lt;/b&gt;" style="html=1;dropTarget=0;whiteSpace=wrap;fillColor=#dae8fc;strokeColor=#6c8ebf;" vertex="1" parent="1">
          <mxGeometry x="210" y="800" width="139" height="140" as="geometry" />
        </mxCell>
        <mxCell id="c85ggkQkAHsCC41uX2oU-2" value="" style="shape=module;jettyWidth=8;jettyHeight=4;fillColor=#dae8fc;strokeColor=#6c8ebf;" vertex="1" parent="c85ggkQkAHsCC41uX2oU-1">
          <mxGeometry x="1" width="20" height="20" relative="1" as="geometry">
            <mxPoint x="-27" y="7" as="offset" />
          </mxGeometry>
        </mxCell>
        <mxCell id="c85ggkQkAHsCC41uX2oU-5" value="Inspector" style="rounded=0;orthogonalLoop=1;jettySize=auto;html=1;endArrow=halfCircle;endFill=0;endSize=6;strokeWidth=1;sketch=0;fillColor=#dae8fc;strokeColor=#6c8ebf;labelBackgroundColor=none;" edge="1" parent="1">
          <mxGeometry x="1" y="-15" relative="1" as="geometry">
            <mxPoint x="350" y="830" as="sourcePoint" />
            <mxPoint x="430" y="830" as="targetPoint" />
            <mxPoint as="offset" />
          </mxGeometry>
        </mxCell>
        <mxCell id="c85ggkQkAHsCC41uX2oU-6" value="" style="rounded=0;orthogonalLoop=1;jettySize=auto;html=1;endArrow=none;endFill=0;sketch=0;sourcePerimeterSpacing=0;targetPerimeterSpacing=0;fillColor=#dae8fc;strokeColor=#6c8ebf;entryX=0;entryY=0.5;entryDx=0;entryDy=0;" edge="1" parent="1" source="c85ggkQkAHsCC41uX2oU-7" target="c85ggkQkAHsCC41uX2oU-8">
          <mxGeometry x="-1" y="-35" relative="1" as="geometry">
            <mxPoint x="440" y="824.6600000000001" as="sourcePoint" />
            <mxPoint x="500" y="830" as="targetPoint" />
            <mxPoint x="-5" as="offset" />
          </mxGeometry>
        </mxCell>
        <mxCell id="c85ggkQkAHsCC41uX2oU-7" value="" style="ellipse;whiteSpace=wrap;html=1;align=center;aspect=fixed;resizable=0;points=[];outlineConnect=0;sketch=0;fillColor=#dae8fc;strokeColor=#6c8ebf;" vertex="1" parent="1">
          <mxGeometry x="425" y="825" width="10" height="10" as="geometry" />
        </mxCell>
        <mxCell id="c85ggkQkAHsCC41uX2oU-8" value="«Component»&lt;br&gt;&lt;b&gt;Staff&lt;/b&gt;" style="html=1;dropTarget=0;whiteSpace=wrap;fillColor=#dae8fc;strokeColor=#6c8ebf;" vertex="1" parent="1">
          <mxGeometry x="510" y="800" width="140" height="60" as="geometry" />
        </mxCell>
        <mxCell id="c85ggkQkAHsCC41uX2oU-9" value="" style="shape=module;jettyWidth=8;jettyHeight=4;fillColor=#dae8fc;strokeColor=#6c8ebf;" vertex="1" parent="c85ggkQkAHsCC41uX2oU-8">
          <mxGeometry x="1" width="20" height="20" relative="1" as="geometry">
            <mxPoint x="-27" y="7" as="offset" />
          </mxGeometry>
        </mxCell>
        <mxCell id="c85ggkQkAHsCC41uX2oU-13" value="" style="rounded=0;orthogonalLoop=1;jettySize=auto;html=1;endArrow=none;endFill=0;sketch=0;sourcePerimeterSpacing=0;targetPerimeterSpacing=0;fillColor=#dae8fc;strokeColor=#6c8ebf;entryX=0.5;entryY=0;entryDx=0;entryDy=0;" edge="1" parent="1" source="c85ggkQkAHsCC41uX2oU-14" target="c85ggkQkAHsCC41uX2oU-15">
          <mxGeometry x="-1" y="-35" relative="1" as="geometry">
            <mxPoint x="447" y="1014.6600000000001" as="sourcePoint" />
            <mxPoint x="520" y="960" as="targetPoint" />
            <mxPoint x="-5" as="offset" />
            <Array as="points">
              <mxPoint x="480" y="910" />
              <mxPoint x="480" y="960" />
            </Array>
          </mxGeometry>
        </mxCell>
        <mxCell id="c85ggkQkAHsCC41uX2oU-14" value="" style="ellipse;whiteSpace=wrap;html=1;align=center;aspect=fixed;resizable=0;points=[];outlineConnect=0;sketch=0;fillColor=#dae8fc;strokeColor=#6c8ebf;" vertex="1" parent="1">
          <mxGeometry x="424" y="905" width="10" height="10" as="geometry" />
        </mxCell>
        <mxCell id="c85ggkQkAHsCC41uX2oU-15" value="«Component»&lt;br&gt;&lt;b&gt;Map&lt;/b&gt;" style="html=1;dropTarget=0;whiteSpace=wrap;fillColor=#dae8fc;strokeColor=#6c8ebf;" vertex="1" parent="1">
          <mxGeometry x="414" y="1010" width="133" height="40" as="geometry" />
        </mxCell>
        <mxCell id="c85ggkQkAHsCC41uX2oU-16" value="" style="shape=module;jettyWidth=8;jettyHeight=4;fillColor=#dae8fc;strokeColor=#6c8ebf;" vertex="1" parent="c85ggkQkAHsCC41uX2oU-15">
          <mxGeometry x="1" width="20" height="20" relative="1" as="geometry">
            <mxPoint x="-27" y="7" as="offset" />
          </mxGeometry>
        </mxCell>
        <mxCell id="c85ggkQkAHsCC41uX2oU-18" value="Defect &lt;br&gt;details" style="rounded=0;orthogonalLoop=1;jettySize=auto;html=1;endArrow=halfCircle;endFill=0;endSize=6;strokeWidth=1;sketch=0;exitX=0.5;exitY=1;exitDx=0;exitDy=0;fillColor=#dae8fc;strokeColor=#6c8ebf;labelBackgroundColor=none;" edge="1" parent="1">
          <mxGeometry x="1" y="26" relative="1" as="geometry">
            <mxPoint x="279.5" y="944" as="sourcePoint" />
            <mxPoint x="279.5" y="994" as="targetPoint" />
            <mxPoint x="-5" y="16" as="offset" />
          </mxGeometry>
        </mxCell>
        <mxCell id="c85ggkQkAHsCC41uX2oU-19" value="" style="rounded=0;orthogonalLoop=1;jettySize=auto;html=1;endArrow=none;endFill=0;sketch=0;sourcePerimeterSpacing=0;targetPerimeterSpacing=0;fillColor=#dae8fc;strokeColor=#6c8ebf;entryX=0.5;entryY=0;entryDx=0;entryDy=0;" edge="1" parent="1" source="c85ggkQkAHsCC41uX2oU-20" target="c85ggkQkAHsCC41uX2oU-21">
          <mxGeometry x="-1" y="-35" relative="1" as="geometry">
            <mxPoint x="139" y="1054.66" as="sourcePoint" />
            <mxPoint x="199" y="1060" as="targetPoint" />
            <mxPoint x="-5" as="offset" />
          </mxGeometry>
        </mxCell>
        <mxCell id="c85ggkQkAHsCC41uX2oU-20" value="" style="ellipse;whiteSpace=wrap;html=1;align=center;aspect=fixed;resizable=0;points=[];outlineConnect=0;sketch=0;fillColor=#dae8fc;strokeColor=#6c8ebf;" vertex="1" parent="1">
          <mxGeometry x="274.5" y="990" width="10" height="10" as="geometry" />
        </mxCell>
        <mxCell id="c85ggkQkAHsCC41uX2oU-21" value="«Component»&lt;br&gt;&lt;b&gt;Defect&lt;/b&gt;" style="html=1;dropTarget=0;whiteSpace=wrap;fillColor=#dae8fc;strokeColor=#6c8ebf;" vertex="1" parent="1">
          <mxGeometry x="209" y="1030" width="140" height="60" as="geometry" />
        </mxCell>
        <mxCell id="c85ggkQkAHsCC41uX2oU-22" value="" style="shape=module;jettyWidth=8;jettyHeight=4;fillColor=#dae8fc;strokeColor=#6c8ebf;" vertex="1" parent="c85ggkQkAHsCC41uX2oU-21">
          <mxGeometry x="1" width="20" height="20" relative="1" as="geometry">
            <mxPoint x="-27" y="7" as="offset" />
          </mxGeometry>
        </mxCell>
        <mxCell id="c85ggkQkAHsCC41uX2oU-31" value="Account" style="rounded=0;orthogonalLoop=1;jettySize=auto;html=1;endArrow=halfCircle;endFill=0;endSize=6;strokeWidth=1;sketch=0;fillColor=#dae8fc;strokeColor=#6c8ebf;exitX=0.5;exitY=1;exitDx=0;exitDy=0;labelBackgroundColor=none;" edge="1" parent="1" source="c85ggkQkAHsCC41uX2oU-8">
          <mxGeometry x="1" y="-20" relative="1" as="geometry">
            <mxPoint x="564" y="890" as="sourcePoint" />
            <mxPoint x="580" y="880" as="targetPoint" />
            <mxPoint x="20" y="20" as="offset" />
          </mxGeometry>
        </mxCell>
        <mxCell id="c85ggkQkAHsCC41uX2oU-34" value="" style="rounded=0;orthogonalLoop=1;jettySize=auto;html=1;endArrow=none;endFill=0;sketch=0;sourcePerimeterSpacing=0;targetPerimeterSpacing=0;fillColor=#dae8fc;strokeColor=#6c8ebf;startArrow=halfCircle;startFill=0;" edge="1" parent="1" target="c85ggkQkAHsCC41uX2oU-36">
          <mxGeometry relative="1" as="geometry">
            <mxPoint x="730" y="880" as="sourcePoint" />
          </mxGeometry>
        </mxCell>
        <mxCell id="c85ggkQkAHsCC41uX2oU-36" value="" style="ellipse;whiteSpace=wrap;html=1;align=center;aspect=fixed;resizable=0;points=[];outlineConnect=0;sketch=0;fillColor=#dae8fc;strokeColor=#6c8ebf;" vertex="1" parent="1">
          <mxGeometry x="575" y="876" width="10" height="10" as="geometry" />
        </mxCell>
        <mxCell id="c85ggkQkAHsCC41uX2oU-38" value="Inspection ID" style="rounded=0;orthogonalLoop=1;jettySize=auto;html=1;endArrow=halfCircle;endFill=0;endSize=6;strokeWidth=1;sketch=0;fillColor=#dae8fc;strokeColor=#6c8ebf;labelBackgroundColor=none;" edge="1" parent="1">
          <mxGeometry x="1" y="-15" relative="1" as="geometry">
            <mxPoint x="350" y="869.71" as="sourcePoint" />
            <mxPoint x="430" y="869.71" as="targetPoint" />
            <mxPoint as="offset" />
          </mxGeometry>
        </mxCell>
        <mxCell id="c85ggkQkAHsCC41uX2oU-39" value="Location" style="rounded=0;orthogonalLoop=1;jettySize=auto;html=1;endArrow=halfCircle;endFill=0;endSize=6;strokeWidth=1;sketch=0;fillColor=#dae8fc;strokeColor=#6c8ebf;labelBackgroundColor=none;" edge="1" parent="1">
          <mxGeometry x="1" y="-15" relative="1" as="geometry">
            <mxPoint x="350" y="910" as="sourcePoint" />
            <mxPoint x="430" y="910" as="targetPoint" />
            <mxPoint as="offset" />
          </mxGeometry>
        </mxCell>
        <mxCell id="c85ggkQkAHsCC41uX2oU-40" value="" style="rounded=0;orthogonalLoop=1;jettySize=auto;html=1;endArrow=halfCircle;endFill=0;sketch=0;sourcePerimeterSpacing=0;targetPerimeterSpacing=0;fillColor=#dae8fc;strokeColor=#6c8ebf;" edge="1" parent="1" source="c85ggkQkAHsCC41uX2oU-41">
          <mxGeometry x="-1" y="-35" relative="1" as="geometry">
            <mxPoint x="439" y="864.6600000000001" as="sourcePoint" />
            <mxPoint x="730" y="920" as="targetPoint" />
            <mxPoint x="-5" as="offset" />
            <Array as="points">
              <mxPoint x="520" y="870" />
              <mxPoint x="520" y="920" />
            </Array>
          </mxGeometry>
        </mxCell>
        <mxCell id="c85ggkQkAHsCC41uX2oU-41" value="" style="ellipse;whiteSpace=wrap;html=1;align=center;aspect=fixed;resizable=0;points=[];outlineConnect=0;sketch=0;fillColor=#dae8fc;strokeColor=#6c8ebf;" vertex="1" parent="1">
          <mxGeometry x="424" y="865" width="10" height="10" as="geometry" />
        </mxCell>
        <mxCell id="c85ggkQkAHsCC41uX2oU-44" value="State" style="rounded=0;orthogonalLoop=1;jettySize=auto;html=1;endArrow=halfCircle;endFill=0;endSize=6;strokeWidth=1;sketch=0;fillColor=#dae8fc;strokeColor=#6c8ebf;labelBackgroundColor=none;" edge="1" parent="1">
          <mxGeometry x="1" y="-15" relative="1" as="geometry">
            <mxPoint x="70" y="830" as="sourcePoint" />
            <mxPoint x="157" y="830" as="targetPoint" />
            <mxPoint as="offset" />
          </mxGeometry>
        </mxCell>
        <mxCell id="c85ggkQkAHsCC41uX2oU-45" value="" style="rounded=0;orthogonalLoop=1;jettySize=auto;html=1;endArrow=none;endFill=0;sketch=0;sourcePerimeterSpacing=0;targetPerimeterSpacing=0;fillColor=#dae8fc;strokeColor=#6c8ebf;entryX=0;entryY=0.5;entryDx=0;entryDy=0;" edge="1" parent="1" source="c85ggkQkAHsCC41uX2oU-46">
          <mxGeometry x="-1" y="-35" relative="1" as="geometry">
            <mxPoint x="170" y="830" as="sourcePoint" />
            <mxPoint x="210" y="830" as="targetPoint" />
            <mxPoint x="-5" as="offset" />
          </mxGeometry>
        </mxCell>
        <mxCell id="c85ggkQkAHsCC41uX2oU-46" value="" style="ellipse;whiteSpace=wrap;html=1;align=center;aspect=fixed;resizable=0;points=[];outlineConnect=0;sketch=0;fillColor=#dae8fc;strokeColor=#6c8ebf;" vertex="1" parent="1">
          <mxGeometry x="152" y="825" width="10" height="10" as="geometry" />
        </mxCell>
        <mxCell id="c85ggkQkAHsCC41uX2oU-50" value="" style="rounded=0;orthogonalLoop=1;jettySize=auto;html=1;endArrow=halfCircle;endFill=0;endSize=6;strokeWidth=1;sketch=0;fillColor=#dae8fc;strokeColor=#6c8ebf;labelBackgroundColor=none;" edge="1" parent="1">
          <mxGeometry x="1" y="-15" relative="1" as="geometry">
            <mxPoint x="70" y="995" as="sourcePoint" />
            <mxPoint x="277.5" y="994.66" as="targetPoint" />
            <mxPoint as="offset" />
          </mxGeometry>
        </mxCell>
        <mxCell id="c85ggkQkAHsCC41uX2oU-56" value="Details" style="rounded=0;orthogonalLoop=1;jettySize=auto;html=1;endArrow=halfCircle;endFill=0;endSize=6;strokeWidth=1;sketch=0;fillColor=#dae8fc;strokeColor=#6c8ebf;labelBackgroundColor=none;" edge="1" parent="1">
          <mxGeometry x="1" y="-15" relative="1" as="geometry">
            <mxPoint x="70" y="870" as="sourcePoint" />
            <mxPoint x="156" y="870" as="targetPoint" />
            <mxPoint as="offset" />
          </mxGeometry>
        </mxCell>
        <mxCell id="c85ggkQkAHsCC41uX2oU-57" value="" style="rounded=0;orthogonalLoop=1;jettySize=auto;html=1;endArrow=none;endFill=0;sketch=0;sourcePerimeterSpacing=0;targetPerimeterSpacing=0;fillColor=#dae8fc;strokeColor=#6c8ebf;entryX=0;entryY=0.5;entryDx=0;entryDy=0;" edge="1" parent="1" source="c85ggkQkAHsCC41uX2oU-58">
          <mxGeometry x="-1" y="-35" relative="1" as="geometry">
            <mxPoint x="169" y="870" as="sourcePoint" />
            <mxPoint x="209" y="870" as="targetPoint" />
            <mxPoint x="-5" as="offset" />
          </mxGeometry>
        </mxCell>
        <mxCell id="c85ggkQkAHsCC41uX2oU-58" value="" style="ellipse;whiteSpace=wrap;html=1;align=center;aspect=fixed;resizable=0;points=[];outlineConnect=0;sketch=0;fillColor=#dae8fc;strokeColor=#6c8ebf;" vertex="1" parent="1">
          <mxGeometry x="151" y="865" width="10" height="10" as="geometry" />
        </mxCell>
        <mxCell id="c85ggkQkAHsCC41uX2oU-59" value="" style="whiteSpace=wrap;html=1;aspect=fixed;fillColor=#dae8fc;strokeColor=#6c8ebf;" vertex="1" parent="1">
          <mxGeometry x="95" y="825" width="10" height="10" as="geometry" />
        </mxCell>
        <mxCell id="c85ggkQkAHsCC41uX2oU-61" value="" style="whiteSpace=wrap;html=1;aspect=fixed;fillColor=#dae8fc;strokeColor=#6c8ebf;" vertex="1" parent="1">
          <mxGeometry x="95" y="865" width="10" height="10" as="geometry" />
        </mxCell>
        <mxCell id="c85ggkQkAHsCC41uX2oU-63" value="" style="whiteSpace=wrap;html=1;aspect=fixed;fillColor=#dae8fc;strokeColor=#6c8ebf;" vertex="1" parent="1">
          <mxGeometry x="94" y="990" width="10" height="10" as="geometry" />
        </mxCell>
        <mxCell id="c85ggkQkAHsCC41uX2oU-64" value="" style="whiteSpace=wrap;html=1;aspect=fixed;fillColor=#dae8fc;strokeColor=#6c8ebf;" vertex="1" parent="1">
          <mxGeometry x="696" y="876" width="10" height="10" as="geometry" />
        </mxCell>
        <mxCell id="c85ggkQkAHsCC41uX2oU-65" value="" style="whiteSpace=wrap;html=1;aspect=fixed;fillColor=#dae8fc;strokeColor=#6c8ebf;" vertex="1" parent="1">
          <mxGeometry x="696" y="915" width="10" height="10" as="geometry" />
        </mxCell>
      </root>
    </mxGraphModel>
  </diagram>
</mxfile>
